<svg width="32" height="32" viewBox="0 0 32 32" fill="none" xmlns="http://www.w3.org/2000/svg">
<path d="M24.5195 12.9427C24.4454 13.4531 24.1088 14.1466 23.7227 14.7495C23.2355 15.5103 22.4623 16.0431 21.5775 16.2281L17.6798 17.0432C17.0534 17.1742 16.4853 17.502 16.0588 17.9788L13.5032 20.8355C13.0228 21.3724 12.6871 21.2443 12.6871 20.5243C12.6813 20.5509 11.4188 23.807 14.7647 25.7369C16.0503 26.4785 17.901 26.212 19.1866 25.4705L25.9984 21.5414C28.546 20.072 30.3446 17.5862 30.9425 14.7087C30.9661 14.5949 30.9844 14.4806 31.0041 14.3665L24.5195 12.9427Z" fill="url(#paint0_linear_1186_69)"/>
<path d="M22.7529 9.01792C24.0386 9.75947 24.5638 10.8635 24.5638 12.3466C24.5638 12.5479 24.548 12.7468 24.5195 12.9427L27.2643 14.1217L31.0041 14.3665C31.483 11.595 30.5445 8.7422 28.8621 6.47463C27.596 4.76819 25.9668 3.28732 24.0082 2.15756C22.4172 1.23984 20.7638 0.635188 19.1026 0.303406L17.2362 2.72041L16.6466 5.49577L22.7529 9.01792Z" fill="url(#paint1_linear_1186_69)"/>
<path d="M0.783597 11.0518C0.782899 11.054 0.784832 11.0546 0.78556 11.0524C0.929583 10.6205 1.11018 10.1385 1.33564 9.62369C2.51334 6.9343 4.78286 5.14062 7.57492 4.22608C10.367 3.31156 13.4155 3.63212 15.9601 5.09988L16.6465 5.49578L19.1025 0.303412C11.291 -1.25676 3.30728 3.33253 0.793528 11.0217C0.792327 11.0254 0.787957 11.0382 0.783597 11.0518Z" fill="url(#paint2_linear_1186_69)"/>
<path d="M18.9198 25.4705C17.6342 26.212 16.0503 26.212 14.7647 25.4705C14.5901 25.3698 14.4256 25.2566 14.27 25.1341L12.009 26.6886L10.0602 29.8377C12.2233 31.6377 15.0321 32.2164 17.8389 31.8946C19.9512 31.6524 22.0495 30.9832 24.0081 29.8535C25.5992 28.9358 26.95 27.8076 28.0682 26.5362L26.9062 23.7129L25.0262 21.9483L18.9198 25.4705Z" fill="url(#paint3_linear_1186_69)"/>
<path d="M14.27 25.1341C13.2795 24.3538 12.6871 23.1571 12.6871 21.8754V21.7475V11.0724C12.6871 10.4686 12.865 10.366 13.3883 10.6679C12.5823 10.203 10.7202 8.60695 8.42112 9.93308C7.13551 10.6746 6.07684 12.3115 6.07684 13.7946V21.6528C6.07684 24.5916 7.599 27.6572 9.79442 29.6132C9.88126 29.6906 9.97116 29.7635 10.0602 29.8376L14.27 25.1341Z" fill="url(#paint4_linear_1186_69)"/>
<path d="M27.9105 5.31236C27.9089 5.31066 27.9074 5.31203 27.9089 5.31374C28.2114 5.65435 28.5388 6.05156 28.8724 6.50405C30.6148 8.86771 31.2659 11.8614 30.6626 14.7343C30.0593 17.6073 28.2572 20.0846 25.7126 21.5524L25.0262 21.9483L28.0682 26.5362C33.3264 20.5577 33.34 11.3555 27.9316 5.33601C27.929 5.33312 27.9201 5.32293 27.9105 5.31236Z" fill="url(#paint5_linear_1186_69)"/>
<path d="M6.34355 13.7947C6.34354 12.3116 7.13551 10.9411 8.42113 10.1996C8.59564 10.0989 8.77601 10.0132 8.96002 9.93982L8.74304 7.20633L7.21861 4.07892C4.57671 5.05035 2.4397 7.05796 1.31528 9.64739C0.469097 11.596 9.792e-06 13.7461 0 16.0056C0 17.841 0.302549 19.5738 0.845532 21.177L3.87391 21.5833L6.34355 20.839V13.7947Z" fill="url(#paint6_linear_1186_69)"/>
<path d="M8.96003 9.93982C10.1316 9.47294 11.4652 9.5587 12.5763 10.1996L12.6871 10.2635L21.5825 15.3944C22.2065 15.7543 22.1498 16.1085 21.4445 16.256L21.9577 16.1487C22.6329 16.0075 23.2498 15.6624 23.7215 15.1595C24.5327 14.295 24.8304 13.2518 24.8304 12.3466C24.8304 10.8635 24.0385 9.49305 22.7529 8.75151L15.941 4.82239C13.3935 3.35298 10.3394 3.03965 7.5461 3.96113C7.4356 3.99758 7.32744 4.03891 7.21863 4.07892L8.96003 9.93982Z" fill="url(#paint7_linear_1186_69)"/>
<path d="M19.3222 31.6524C19.3244 31.652 19.324 31.65 19.3218 31.6504C18.8753 31.7418 18.3672 31.8265 17.8082 31.8889C14.8881 32.2146 11.9675 31.2811 9.7787 29.3226C7.58992 27.3642 6.34353 24.5663 6.34354 21.6308L6.34353 20.839L0.84552 21.177C3.39886 28.7157 11.3689 33.3286 19.2911 31.6589C19.2949 31.6581 19.3082 31.6555 19.3222 31.6524Z" fill="url(#paint8_linear_1186_69)"/>
<defs>
<linearGradient id="paint0_linear_1186_69" x1="20.0601" y1="23.7699" x2="23.2076" y2="12.8068" gradientUnits="userSpaceOnUse">
<stop stop-color="#1724C9"/>
<stop offset="1" stop-color="#1C64F2"/>
</linearGradient>
<linearGradient id="paint1_linear_1186_69" x1="27.3094" y1="10.4003" x2="19.0298" y2="2.1498" gradientUnits="userSpaceOnUse">
<stop stop-color="#1C64F2"/>
<stop offset="1" stop-color="#0092FF"/>
</linearGradient>
<linearGradient id="paint2_linear_1186_69" x1="16.1645" y1="5.02115" x2="3.67432" y2="5.8104" gradientUnits="userSpaceOnUse">
<stop stop-color="#0092FF"/>
<stop offset="1" stop-color="#45B2FF"/>
</linearGradient>
<linearGradient id="paint3_linear_1186_69" x1="15.3197" y1="28.6627" x2="26.5366" y2="25.6359" gradientUnits="userSpaceOnUse">
<stop stop-color="#1C64F2"/>
<stop offset="1" stop-color="#0092FF"/>
</linearGradient>
<linearGradient id="paint4_linear_1186_69" x1="7.26875" y1="15.6827" x2="15.2324" y2="23.9347" gradientUnits="userSpaceOnUse">
<stop stop-color="#1724C9"/>
<stop offset="1" stop-color="#1C64F2"/>
</linearGradient>
<linearGradient id="paint5_linear_1186_69" x1="25.4504" y1="21.6356" x2="31.0069" y2="10.4345" gradientUnits="userSpaceOnUse">
<stop stop-color="#0092FF"/>
<stop offset="1" stop-color="#45B2FF"/>
</linearGradient>
<linearGradient id="paint6_linear_1186_69" x1="5.36387" y1="9.13098" x2="2.39054" y2="20.3066" gradientUnits="userSpaceOnUse">
<stop stop-color="#1C64F2"/>
<stop offset="1" stop-color="#0092FF"/>
</linearGradient>
<linearGradient id="paint7_linear_1186_69" x1="20.5431" y1="8.59942" x2="9.67768" y2="11.3047" gradientUnits="userSpaceOnUse">
<stop stop-color="#1724C9"/>
<stop offset="1" stop-color="#1C64F2"/>
</linearGradient>
<linearGradient id="paint8_linear_1186_69" x1="6.40673" y1="21.3567" x2="13.3325" y2="31.7747" gradientUnits="userSpaceOnUse">
<stop stop-color="#0092FF"/>
<stop offset="1" stop-color="#45B2FF"/>
</linearGradient>
</defs>
</svg>
